<?xml version="1.0" standalone="no"?>
<!DOCTYPE svg PUBLIC "-//W3C//DTD SVG 20010904//EN"
 "http://www.w3.org/TR/2001/REC-SVG-20010904/DTD/svg10.dtd">
<svg version="1.0" xmlns="http://www.w3.org/2000/svg"
 width="95.000000pt" height="95.000000pt" viewBox="0 0 95.000000 95.000000"
 preserveAspectRatio="xMidYMid meet">
<metadata>
Created by potrace 1.14, written by Peter Selinger 2001-2017
</metadata>
<g transform="translate(0.000000,95.000000) scale(0.100000,-0.100000)"
fill="#000000" stroke="none">
<path d="M380 936 c-30 -30 6 -67 60 -60 14 2 53 5 87 8 l63 4 -34 -41 c-18
-23 -55 -79 -81 -124 -41 -74 -50 -83 -75 -83 -45 0 -62 -40 -28 -64 20 -14
20 -16 -31 -122 -63 -131 -120 -218 -206 -314 -69 -76 -80 -111 -44 -133 46
-28 137 97 272 375 l92 188 156 0 c118 0 156 -3 156 -12 3 -83 17 -238 24
-254 10 -27 45 -37 64 -17 19 18 19 46 0 153 -18 102 -28 223 -29 345 -1 81 1
90 18 90 25 0 48 35 36 55 -8 13 -48 15 -250 16 -149 0 -244 -4 -250 -10z
m363 -53 c3 -5 8 -61 11 -125 l7 -118 -50 -1 c-28 -1 -73 -1 -101 -1 -27 0
-66 0 -86 1 l-35 1 26 48 c45 82 110 157 156 180 46 23 65 27 72 15z"/>
</g>
</svg>
